<?xml version="1.0" ?><!DOCTYPE svg  PUBLIC '-//W3C//DTD SVG 1.1//EN'  'http://www.w3.org/Graphics/SVG/1.1/DTD/svg11.dtd'><svg width="32px" height="32px" viewBox="0 0 32 32" enable-background="new 0 0 32 32" version="1.1" xml:space="preserve" xmlns="http://www.w3.org/2000/svg" xmlns:xlink="http://www.w3.org/1999/xlink"><g id="Security02"/><g id="Security03"><g><path d="M31,21v3c0,1.65-1.35,3-3,3H4c-1.65,0-3-1.35-3-3v-3c0-0.55,0.45-1,1-1h1V8c0-1.65,1.35-3,3-3h20    c1.65,0,3,1.35,3,3v12h1C30.55,20,31,20.45,31,21z" fill="#2197F3"/></g><g><path d="M31,21v3c0,1.65-1.35,3-3,3H4c-1.65,0-3-1.35-3-3v-3c0-0.55,0.45-1,1-1h9c0.55,0,1,0.45,1,1s0.45,1,1,1h6    c0.55,0,1-0.45,1-1s0.45-1,1-1h9C30.55,20,31,20.45,31,21z" fill="#3F51B5"/></g><g><path d="M18.707,11.293c-0.3906-0.3906-1.0234-0.3906-1.4141,0L16,12.5859l-1.293-1.293    c-0.3906-0.3906-1.0234-0.3906-1.4141,0s-0.3906,1.0234,0,1.4141L14.5859,14l-1.293,1.293c-0.3906,0.3906-0.3906,1.0234,0,1.4141    C13.4883,16.9023,13.7441,17,14,17s0.5117-0.0977,0.707-0.293L16,15.4141l1.293,1.293C17.4883,16.9023,17.7441,17,18,17    s0.5117-0.0977,0.707-0.293c0.3906-0.3906,0.3906-1.0234,0-1.4141L17.4141,14l1.293-1.293    C19.0977,12.3164,19.0977,11.6836,18.707,11.293z" fill="#FFFFFF"/><path d="M11.707,11.293c-0.3906-0.3906-1.0234-0.3906-1.4141,0L9,12.5859l-1.293-1.293    c-0.3906-0.3906-1.0234-0.3906-1.4141,0s-0.3906,1.0234,0,1.4141L7.5859,14l-1.293,1.293c-0.3906,0.3906-0.3906,1.0234,0,1.4141    C6.4883,16.9023,6.7441,17,7,17s0.5117-0.0977,0.707-0.293L9,15.4141l1.293,1.293C10.4883,16.9023,10.7441,17,11,17    s0.5117-0.0977,0.707-0.293c0.3906-0.3906,0.3906-1.0234,0-1.4141L10.4141,14l1.293-1.293    C12.0977,12.3164,12.0977,11.6836,11.707,11.293z" fill="#FFFFFF"/><path d="M24.4141,14l1.293-1.293c0.3906-0.3906,0.3906-1.0234,0-1.4141s-1.0234-0.3906-1.4141,0L23,12.5859    l-1.293-1.293c-0.3906-0.3906-1.0234-0.3906-1.4141,0s-0.3906,1.0234,0,1.4141L21.5859,14l-1.293,1.293    c-0.3906,0.3906-0.3906,1.0234,0,1.4141C20.4883,16.9023,20.7441,17,21,17s0.5117-0.0977,0.707-0.293L23,15.4141l1.293,1.293    C24.4883,16.9023,24.7441,17,25,17s0.5117-0.0977,0.707-0.293c0.3906-0.3906,0.3906-1.0234,0-1.4141L24.4141,14z" fill="#FFFFFF"/></g></g><g id="Security04"/><g id="Security05"/><g id="Security06"/><g id="Security07"/><g id="Security08"/><g id="Security09"/><g id="Security10"/><g id="Security11"/><g id="Security12"/><g id="Security13"/><g id="Security14"/><g id="Security15"/><g id="Security16"/><g id="Security17"/><g id="Security18"/><g id="Security19"/><g id="Security20"/><g id="Security21"/></svg>